<svg xmlns="http://www.w3.org/2000/svg" width="19.983" height="24.453" viewBox="0 0 19.983 24.453">
  <g id="app_store" data-name="app store" transform="translate(-412 -2595)">
    <path id="XMLID_229_" d="M28.906,75.511c-2.067,3.587-.753,9.031,1.533,12.332,1.141,1.65,2.3,3.132,3.879,3.132l.09,0a4.79,4.79,0,0,0,1.8-.48,4.929,4.929,0,0,1,2.132-.505,4.636,4.636,0,0,1,2.03.489,4.3,4.3,0,0,0,1.944.466c1.782-.033,2.877-1.632,3.842-3.042a13.483,13.483,0,0,0,1.683-3.448l.007-.022a.2.2,0,0,0-.106-.246l-.015-.006a5.109,5.109,0,0,1-3.1-4.679,5.259,5.259,0,0,1,2.485-4.4l.02-.012a.2.2,0,0,0,.057-.281,5.784,5.784,0,0,0-4.549-2.47c-.129-.013-.263-.019-.4-.019a7.93,7.93,0,0,0-2.855.713,4.589,4.589,0,0,1-1.368.409,4.475,4.475,0,0,1-1.415-.414,6.855,6.855,0,0,0-2.493-.633h-.063A6.114,6.114,0,0,0,28.906,75.511Z" transform="translate(384.125 2528.479)" fill="#fff"/>
    <path id="XMLID_230_" d="M154.252,0a5.583,5.583,0,0,0-3.686,1.891,5.231,5.231,0,0,0-1.324,3.879.2.2,0,0,0,.183.173c.085.007.172.01.259.01a4.723,4.723,0,0,0,3.479-1.784,5.515,5.515,0,0,0,1.3-3.99A.2.2,0,0,0,154.252,0Z" transform="translate(272.518 2595)" fill="#fff"/>
  </g>
</svg>
