<svg xmlns="http://www.w3.org/2000/svg" width="108" height="108" viewBox="0 0 108 108">
  <g id="family" transform="translate(-588 -2282)">
    <rect id="Rectangle_1392" data-name="Rectangle 1392" width="108" height="108" rx="28" transform="translate(588 2282)" fill="#fff"/>
    <g id="family-2" data-name="family" transform="translate(609 2303)">
      <path id="Path_31807" data-name="Path 31807" d="M50.076,20.886A10.443,10.443,0,1,0,39.633,10.443,10.455,10.455,0,0,0,50.076,20.886Zm0,0" transform="translate(-34.447 -0.001)" fill="#222"/>
      <path id="Path_31808" data-name="Path 31808" d="M356.907,140.854a5.222,5.222,0,0,0,5.217-5.215v-3.511a53.253,53.253,0,0,1-10.791-1.515v4.666a5.571,5.571,0,0,0,5.574,5.575Zm0,0" transform="translate(-305.357 -113.521)" fill="#222"/>
      <path id="Path_31809" data-name="Path 31809" d="M173.141,372.4a12.488,12.488,0,0,0-12.473,12.474V388.7a1.963,1.963,0,0,0,1.963,1.963h21.025a1.963,1.963,0,0,0,1.963-1.963v-3.83A12.49,12.49,0,0,0,173.141,372.4Zm0,0" transform="translate(-139.643 -323.666)" fill="#222"/>
      <path id="Path_31810" data-name="Path 31810" d="M17.1,225.993a16.417,16.417,0,0,1,9.08-14.672,13.3,13.3,0,0,1-2.858-19.695A15.623,15.623,0,0,0,0,205.227v24.6a1.963,1.963,0,0,0,1.963,1.963H17.436a5.865,5.865,0,0,1-.337-1.963Zm0,0" transform="translate(0 -164.787)" fill="#222"/>
      <path id="Path_31811" data-name="Path 31811" d="M193.626,217.649a9.391,9.391,0,1,0-9.391-9.391A9.4,9.4,0,0,0,193.626,217.649Zm0,0" transform="translate(-160.126 -172.843)" fill="#222"/>
      <path id="Path_31812" data-name="Path 31812" d="M322.488,238.871a15.573,15.573,0,0,0-4.979.813,13.315,13.315,0,0,1-5.572,14.462,16.42,16.42,0,0,1,9.081,14.674v3.83a5.865,5.865,0,0,1-.337,1.963h15.474a1.963,1.963,0,0,0,1.963-1.963V254.5a15.647,15.647,0,0,0-15.629-15.629Zm0,0" transform="translate(-271.117 -207.612)" fill="#222"/>
      <path id="Path_31813" data-name="Path 31813" d="M288.759,0a15.648,15.648,0,0,0-15.63,15.63v6.658a13.3,13.3,0,0,1,7.466,4.02,9.442,9.442,0,0,1-1.158-4.55v-7.18a1.963,1.963,0,0,1,2.439-1.9l2.292.573a49.305,49.305,0,0,0,11.95,1.471,1.964,1.964,0,0,1,1.963,1.963v5.437a9.118,9.118,0,0,1-2.619,6.4,19.593,19.593,0,0,1,5.037,2.743h1.926a1.964,1.964,0,0,0,1.963-1.963V15.63A15.647,15.647,0,0,0,288.759,0Zm0,0" transform="translate(-237.387)" fill="#222"/>
    </g>
  </g>
</svg>
