<svg xmlns="http://www.w3.org/2000/svg" width="24.073" height="24.073" viewBox="0 0 24.073 24.073">
  <path id="Icon_awesome-phone-alt" data-name="Icon awesome-phone-alt" d="M23.386,17.011,18.12,14.754a1.128,1.128,0,0,0-1.316.324l-2.332,2.849A17.428,17.428,0,0,1,6.141,9.6L8.99,7.265a1.126,1.126,0,0,0,.324-1.316L7.057.682A1.136,1.136,0,0,0,5.764.029L.875,1.157A1.128,1.128,0,0,0,0,2.257,21.814,21.814,0,0,0,21.816,24.073a1.128,1.128,0,0,0,1.1-.875l1.128-4.89A1.142,1.142,0,0,0,23.386,17.011Z" transform="translate(0 0)" fill="#a943a4"/>
</svg>
