<svg xmlns="http://www.w3.org/2000/svg" width="108" height="108" viewBox="0 0 108 108">
  <g id="mob" transform="translate(-588 -2142)">
    <rect id="Rectangle_1391" data-name="Rectangle 1391" width="108" height="108" rx="28" transform="translate(588 2142)" fill="#fff"/>
    <g id="cell-phone" transform="translate(615.049 2158)">
      <path id="Path_9055" data-name="Path 9055" d="M43.32,0H11.461a5.511,5.511,0,0,0-5.51,5.516V70.21a5.508,5.508,0,0,0,5.51,5.51H43.32a5.512,5.512,0,0,0,5.51-5.51V5.516A5.515,5.515,0,0,0,43.32,0ZM19.53,3.35H35.258c.4,0,.72.593.72,1.327s-.323,1.33-.72,1.33H19.53c-.4,0-.717-.6-.717-1.33S19.129,3.35,19.53,3.35Zm7.864,66.927a3.518,3.518,0,1,1,3.513-3.521A3.523,3.523,0,0,1,27.394,70.277ZM44.7,58.221H10.082V9.307H44.7V58.221Z" fill="#343434"/>
    </g>
  </g>
</svg>
