<svg xmlns="http://www.w3.org/2000/svg" width="67" height="70.031" viewBox="0 0 67 70.031">
  <g id="price" transform="translate(-3.386 -2.87)">
    <path id="Path_31815" data-name="Path 31815" d="M30.79,16.614,11.647,49.756a6.024,6.024,0,0,0,2.2,8.228L32.116,68.538a8.361,8.361,0,0,1-.6-3.12V27.143a13.252,13.252,0,0,1,3.711-9.2L42.91,10l-5.735,1.614a10.843,10.843,0,0,0-6.385,5Z" transform="translate(1.526 1.46)" fill="#fff"/>
    <path id="Path_31816" data-name="Path 31816" d="M5.15,38.3a6.024,6.024,0,0,0,0,8.517l4.819,4.819a8.433,8.433,0,0,1,1.12-3.193C13.9,43.624,26.3,22.1,33.039,10.53,32.232,11.156,33.7,9.771,5.15,38.3Z" transform="translate(0 1.568)" fill="#fff"/>
    <path id="Path_31817" data-name="Path 31817" d="M44.119,39.819h.349V35h-.349a2.409,2.409,0,1,0,0,4.819Z" transform="translate(7.846 6.578)" fill="#fff"/>
    <path id="Path_31818" data-name="Path 31818" d="M55.3,2.87a16.42,16.42,0,0,1-3.542,7.71,6.024,6.024,0,0,0-8.638,0L33.036,21.1A10.843,10.843,0,0,0,30,28.6V66.877A6.024,6.024,0,0,0,36.024,72.9h22.89a6.024,6.024,0,0,0,6.024-6.024V28.6A10.842,10.842,0,0,0,61.9,21.1l-6.759-7.012a15.661,15.661,0,0,1-5.409,3.819,2.422,2.422,0,1,1-.494-2.422,12.481,12.481,0,0,0,2.108-1.2h0a16.938,16.938,0,0,0,2.12-1.891h0a18.336,18.336,0,0,0,4.241-9.216Zm-8.782,36.3h.349V36.241h2.409v2.927h.349a4.819,4.819,0,0,1,4.819,4.819H52.034a2.409,2.409,0,0,0-2.409-2.409h-.349V46.4h.349a4.819,4.819,0,1,1,0,9.638h-.349v2.927H46.866V56.035h-.349A4.819,4.819,0,0,1,41.7,51.216h2.409a2.409,2.409,0,0,0,2.409,2.409h.349V48.806h-.349a4.819,4.819,0,1,1,0-9.638Z" transform="translate(5.449 0)" fill="#fff"/>
    <path id="Path_31819" data-name="Path 31819" d="M48.759,43.409A2.409,2.409,0,0,0,46.349,41H46v4.819h.349A2.409,2.409,0,0,0,48.759,43.409Z" transform="translate(8.724 7.806)" fill="#fff"/>
  </g>
</svg>
